<svg width="0" height="0" class="hidden">
  <symbol xmlns="http://www.w3.org/2000/svg" id="flag-eng" viewBox="0 0 512 512">
    <path fill="#012169" d="M0 0h512v512H0z"></path>
    <path fill="#FFF" d="M512 0v64L322 256l190 187v69h-67L254 324 68 512H0v-68l186-187L0 74V0h62l192 188L440 0z"></path>
    <path fill="#C8102E" d="m184 324 11 34L42 512H0v-3l184-185zm124-12 54 8 150 147v45L308 312zM512 0 320 196l-4-44L466 0h46zM0 1l193 189-59-8L0 49V1z"></path>
    <path fill="#FFF" d="M176 0v512h160V0H176zM0 176v160h512V176H0z"></path>
    <path fill="#C8102E" d="M0 208v96h512v-96H0zM208 0v512h96V0h-96z"></path>
  </symbol>
  <symbol xmlns="http://www.w3.org/2000/svg" id="flag-jp" viewBox="0 0 512 512">
    <defs>
      <clipPath id="a">
        <path fill-opacity=".7" d="M177.2 0h708.6v708.7H177.2z"></path>
      </clipPath>
    </defs>
    <g fill-rule="evenodd" stroke-width="1pt" clip-path="url(#a)" transform="translate(-128) scale(.72249)">
      <path fill="#fff" d="M0 0h1063v708.7H0z"></path>
      <circle cx="523.1" cy="344.1" r="194.9" fill="#bc002d" transform="translate(-59.7 -34.5) scale(1.1302)"></circle>
    </g>
  </symbol>
  <symbol xmlns="http://www.w3.org/2000/svg" id="flag-ru" viewBox="0 0 512 512">
    <g fill-rule="evenodd" stroke-width="1pt">
      <path fill="#fff" d="M0 0h512v512H0z"></path>
      <path fill="#0039a6" d="M0 170.7h512V512H0z"></path>
      <path fill="#d52b1e" d="M0 341.3h512V512H0z"></path>
    </g>
  </symbol>
</svg>