<svg width="0" height="0" class="hidden">
  <symbol version="1.1" xmlns="http://www.w3.org/2000/svg" xmlns:xlink="http://www.w3.org/1999/xlink" viewBox="0 0 73 73" id="github">
    <title>team-collaboration/version-control/github</title>
    <desc>Created with Sketch.</desc>
    <defs></defs>
    <g id="team-collaboration/version-control/github" stroke="none" stroke-width="1" fill="none" fill-rule="evenodd">
      <g id="container" transform="translate(2.000000, 2.000000)" fill-rule="nonzero">
        <rect id="mask" stroke="#000000" stroke-width="2" fill="#000000" x="-1" y="-1" width="71" height="71" rx="14"></rect>
        <path d="M58.3067362,21.4281798 C55.895743,17.2972267 52.6253846,14.0267453 48.4948004,11.615998 C44.3636013,9.20512774 39.8535636,8 34.9614901,8 C30.0700314,8 25.5585181,9.20549662 21.4281798,11.615998 C17.2972267,14.0266224 14.0269912,17.2972267 11.615998,21.4281798 C9.20537366,25.5590099 8,30.0699084 8,34.9607523 C8,40.8357654 9.71405782,46.1187277 13.1430342,50.8109917 C16.5716416,55.5036246 21.0008949,58.7507436 26.4304251,60.5527176 C27.0624378,60.6700211 27.5302994,60.5875152 27.8345016,60.3072901 C28.1388268,60.0266961 28.290805,59.6752774 28.290805,59.2545094 C28.290805,59.1842994 28.2847799,58.5526556 28.2730988,57.3588401 C28.2610487,56.1650247 28.2553926,55.1235563 28.2553926,54.2349267 L27.4479164,54.3746089 C26.9330843,54.468919 26.2836113,54.5088809 25.4994975,54.4975686 C24.7157525,54.4866252 23.9021284,54.4044881 23.0597317,54.2517722 C22.2169661,54.1004088 21.4330982,53.749359 20.7075131,53.1993604 C19.982297,52.6493618 19.4674649,51.9294329 19.1631397,51.0406804 L18.8120898,50.2328353 C18.5780976,49.6950097 18.2097104,49.0975487 17.7064365,48.4426655 C17.2031625,47.7871675 16.6942324,47.3427912 16.1794003,47.108799 L15.9336039,46.9328437 C15.7698216,46.815909 15.6178435,46.6748743 15.4773006,46.511215 C15.3368806,46.3475556 15.2317501,46.1837734 15.1615401,46.0197452 C15.0912072,45.855594 15.1494901,45.7209532 15.3370036,45.6153308 C15.5245171,45.5097084 15.8633939,45.4584343 16.3551097,45.4584343 L17.0569635,45.5633189 C17.5250709,45.6571371 18.104088,45.9373622 18.7947525,46.4057156 C19.4850481,46.8737001 20.052507,47.4821045 20.4972521,48.230683 C21.0358155,49.1905062 21.6846737,49.9218703 22.4456711,50.4251443 C23.2060537,50.9284182 23.9727072,51.1796248 24.744894,51.1796248 C25.5170807,51.1796248 26.1840139,51.121096 26.7459396,51.0046532 C27.3072505,50.8875956 27.8338868,50.7116403 28.3256025,50.477771 C28.5362325,48.9090515 29.1097164,47.7039238 30.0455624,46.8615271 C28.7116959,46.721353 27.5124702,46.5102313 26.4472706,46.2295144 C25.3826858,45.9484285 24.2825656,45.4922482 23.1476478,44.8597436 C22.0121153,44.2280998 21.0701212,43.44374 20.3214198,42.5080169 C19.5725954,41.571802 18.9580429,40.3426971 18.4786232,38.821809 C17.9989575,37.300306 17.7590632,35.5451796 17.7590632,33.5559381 C17.7590632,30.7235621 18.6837199,28.3133066 20.5326645,26.3238191 C19.6665366,24.1944035 19.7483048,21.8072644 20.778215,19.1626478 C21.4569523,18.951772 22.4635002,19.1100211 23.7973667,19.6364115 C25.1314792,20.1630477 26.1082708,20.6141868 26.7287253,20.9882301 C27.3491798,21.3621504 27.8463057,21.6790175 28.2208409,21.9360032 C30.3978419,21.3277217 32.644438,21.0235195 34.9612442,21.0235195 C37.2780503,21.0235195 39.5251383,21.3277217 41.7022622,21.9360032 L43.0362517,21.0938524 C43.9484895,20.5319267 45.0257392,20.0169716 46.2654186,19.5488642 C47.5058357,19.0810026 48.4543466,18.9521409 49.1099676,19.1630167 C50.1627483,21.8077563 50.2565666,24.1947724 49.3901927,26.324188 C51.2390143,28.3136755 52.1640399,30.7245457 52.1640399,33.556307 C52.1640399,35.5455485 51.9232849,37.3062081 51.444357,38.8393922 C50.9648143,40.3728223 50.3449746,41.6006975 49.5845919,42.5256002 C48.8233486,43.4503799 47.8753296,44.2285916 46.7404118,44.8601125 C45.6052481,45.4921252 44.504759,45.9483056 43.4401742,46.2293914 C42.3750975,46.5104772 41.1758719,46.7217219 39.8420054,46.8621419 C41.0585683,47.9149226 41.6669728,49.5767225 41.6669728,51.846804 L41.6669728,59.2535257 C41.6669728,59.6742937 41.8132948,60.0255895 42.1061847,60.3063064 C42.3987058,60.5865315 42.8606653,60.6690374 43.492678,60.5516109 C48.922946,58.7498829 53.3521992,55.5026409 56.7806837,50.810008 C60.2087994,46.117744 61.923472,40.8347817 61.923472,34.9597686 C61.9222424,30.0695396 60.7162539,25.5590099 58.3067362,21.4281798 Z" id="Shape" fill="#FFFFFF"></path>
      </g>
    </g>
  </symbol>
  <symbol fill="none" xmlns="http://www.w3.org/2000/svg" viewBox="-2 0 32 32" id="location">
    <path fill-rule="evenodd" clip-rule="evenodd" d="M23.1397 4.05909C20.4929 1.35303 17.2979 0 13.5549 0C9.81179 0 6.61688 1.35303 3.97014 4.05909C1.32338 6.76515 0 10.0317 0 13.8586C0 17.6855 1.32338 20.952 3.97014 23.6582L11.1323 30.9808C12.4615 32.3397 14.6483 32.3397 15.9775 30.9808L23.1397 23.6582C25.7864 20.952 27.1097 17.6855 27.1097 13.8586C27.1097 10.0317 25.7864 6.76515 23.1397 4.05909ZM13.5549 19.0556C13.8886 19.0556 14.2192 19.0223 14.5465 18.9556C14.8739 18.8891 15.1917 18.7906 15.5001 18.66C15.8084 18.5294 16.1014 18.3693 16.3789 18.1798C16.6564 17.9901 16.9131 17.7747 17.1491 17.5334C17.2668 17.4131 17.3785 17.2871 17.4841 17.1556C17.5897 17.024 17.6888 16.8874 17.7813 16.7459C17.8738 16.6044 17.9593 16.4585 18.0378 16.3084C18.1162 16.1583 18.1872 16.0047 18.251 15.8474C18.3147 15.6901 18.3707 15.5301 18.419 15.3672C18.4674 15.2043 18.5078 15.0394 18.5404 14.8725C18.5728 14.7055 18.5972 14.5374 18.6135 14.368C18.6298 14.1986 18.6379 14.0288 18.6379 13.8586C18.6379 13.6884 18.6298 13.5186 18.6135 13.3492C18.5972 13.1798 18.5728 13.0117 18.5404 12.8447C18.5078 12.6778 18.4674 12.5129 18.419 12.35C18.3707 12.1871 18.3147 12.0271 18.251 11.8698C18.1872 11.7125 18.1162 11.5589 18.0378 11.4088C17.9593 11.2587 17.8738 11.1128 17.7813 10.9713C17.6888 10.8298 17.5897 10.6933 17.4841 10.5617C17.3785 10.4301 17.2668 10.3041 17.1491 10.1838C16.9131 9.94249 16.6564 9.72705 16.3789 9.53748C16.1014 9.34789 15.8084 9.18781 15.5001 9.05723C15.1917 8.92664 14.8739 8.82806 14.5465 8.76148C14.2192 8.69491 13.8886 8.66163 13.5549 8.66163C13.2211 8.66163 12.8906 8.69491 12.5632 8.76148C12.2359 8.82806 11.918 8.92664 11.6097 9.05723C11.3013 9.18781 11.0084 9.34789 10.7309 9.53748C10.4534 9.72705 10.1966 9.94249 9.96059 10.1838C9.84288 10.3041 9.73122 10.4301 9.6256 10.5617C9.51999 10.6933 9.42094 10.8298 9.32845 10.9713C9.23596 11.1128 9.15048 11.2587 9.072 11.4088C8.99352 11.5589 8.92243 11.7126 8.85872 11.8698C8.79501 12.0271 8.73899 12.1871 8.69067 12.35C8.64235 12.5129 8.60194 12.6778 8.56946 12.8447C8.53698 13.0117 8.51259 13.1798 8.49628 13.3492C8.47996 13.5186 8.47179 13.6884 8.47179 13.8586C8.47179 14.0288 8.47996 14.1986 8.49628 14.368C8.51259 14.5374 8.53698 14.7055 8.56946 14.8725C8.60194 15.0394 8.64235 15.2043 8.69067 15.3672C8.73899 15.5301 8.79501 15.6902 8.85872 15.8474C8.92243 16.0047 8.99352 16.1583 9.072 16.3084C9.15048 16.4585 9.23596 16.6044 9.32845 16.7459C9.42094 16.8874 9.51999 17.024 9.6256 17.1556C9.73122 17.2871 9.84288 17.4131 9.96059 17.5334C10.1966 17.7747 10.4534 17.9901 10.7309 18.1798C11.0084 18.3693 11.3013 18.5294 11.6097 18.66C11.918 18.7906 12.2359 18.8891 12.5632 18.9556C12.8906 19.0223 13.2211 19.0556 13.5549 19.0556Z" fill="url(#paint0_radial_103_1597)"></path>
    <defs>
      <radialGradient id="paint0_radial_103_1597" cx="0" cy="0" r="1" gradientUnits="userSpaceOnUse" gradientTransform="translate(13.5549) rotate(90) scale(32 27.1097)">
        <stop stop-color="#A2E458"></stop>
        <stop offset="1" stop-color="#5AD010"></stop>
      </radialGradient>
    </defs>
  </symbol>
  <symbol version="1.1" xmlns="http://www.w3.org/2000/svg" xmlns:xlink="http://www.w3.org/1999/xlink" preserveAspectRatio="xMidYMid" viewBox="0 0 256 256" id="telegram">
    <g>
      <path d="M128,0 C57.307,0 0,57.307 0,128 L0,128 C0,198.693 57.307,256 128,256 L128,256 C198.693,256 256,198.693 256,128 L256,128 C256,57.307 198.693,0 128,0 L128,0 Z" fill="#40B3E0"></path>
      <path d="M190.2826,73.6308 L167.4206,188.8978 C167.4206,188.8978 164.2236,196.8918 155.4306,193.0548 L102.6726,152.6068 L83.4886,143.3348 L51.1946,132.4628 C51.1946,132.4628 46.2386,130.7048 45.7586,126.8678 C45.2796,123.0308 51.3546,120.9528 51.3546,120.9528 L179.7306,70.5928 C179.7306,70.5928 190.2826,65.9568 190.2826,73.6308" fill="#FFFFFF"></path>
      <path d="M98.6178,187.6035 C98.6178,187.6035 97.0778,187.4595 95.1588,181.3835 C93.2408,175.3085 83.4888,143.3345 83.4888,143.3345 L161.0258,94.0945 C161.0258,94.0945 165.5028,91.3765 165.3428,94.0945 C165.3428,94.0945 166.1418,94.5735 163.7438,96.8115 C161.3458,99.0505 102.8328,151.6475 102.8328,151.6475" fill="#D2E5F1"></path>
      <path d="M122.9015,168.1154 L102.0335,187.1414 C102.0335,187.1414 100.4025,188.3794 98.6175,187.6034 L102.6135,152.2624" fill="#B5CFE4"></path>
    </g>
  </symbol>
  <symbol version="1.1" xmlns="http://www.w3.org/2000/svg" xmlns:xlink="http://www.w3.org/1999/xlink" xml:space="preserve" viewBox="0 0 64 64" id="email">
    <g id="Layer_1">
      <g>
        <circle cx="32" cy="32" r="32"></circle>
      </g>
      <g>
        <path d="M32,12c-12.1,0-22,9.9-22,22s9.9,22,22,22c3.5,0,7-0.8,10.1-2.4c1-0.5,1.4-1.7,0.9-2.7s-1.7-1.4-2.7-0.9
			c-2.6,1.3-5.3,2-8.2,2c-9.9,0-18-8.1-18-18s8.1-18,18-18s18,8.1,18,18c0,3-0.8,6-2.2,8.6c-1.8-1.4-4.4-4.2-4.4-8.5v-8.8
			c0-1.1-0.9-2-2-2s-2,0.9-2,2v0.1c-2-1.7-4.6-2.8-7.4-2.8c-6.3,0-11.4,5.1-11.4,11.4S25.7,45.4,32,45.4c3.7,0,7-1.8,9.1-4.6
			c2.3,4.2,6.2,6.3,6.4,6.4c0.9,0.5,2,0.2,2.6-0.6c2.6-3.7,3.9-8,3.9-12.6C54,21.9,44.1,12,32,12z M32,41.4c-4.1,0-7.4-3.3-7.4-7.4
			c0-4.1,3.3-7.4,7.4-7.4s7.4,3.3,7.4,7.4C39.4,38.1,36.1,41.4,32,41.4z"></path>
      </g>
      <g>
        <path d="M32,54c-12.1,0-22-9.9-22-22s9.9-22,22-22s22,9.9,22,22c0,4.5-1.4,8.9-3.9,12.6c-0.6,0.8-1.7,1.1-2.6,0.6
			c-0.3-0.2-8.1-4.2-8.1-13.1v-8.8c0-1.1,0.9-2,2-2c1.1,0,2,0.9,2,2v8.8c0,4.3,2.6,7.1,4.4,8.5C49.2,38,50,35,50,32
			c0-9.9-8.1-18-18-18s-18,8.1-18,18s8.1,18,18,18c2.9,0,5.7-0.7,8.2-2c1-0.5,2.2-0.1,2.7,0.9c0.5,1,0.1,2.2-0.9,2.7
			C39,53.2,35.5,54,32,54z"></path>
      </g>
      <g>
        <path d="M32,24.6c4.1,0,7.4,3.3,7.4,7.4s-3.3,7.4-7.4,7.4s-7.4-3.3-7.4-7.4S27.9,24.6,32,24.6 M32,20.6
			c-6.3,0-11.4,5.1-11.4,11.4S25.7,43.4,32,43.4S43.4,38.3,43.4,32S38.3,20.6,32,20.6L32,20.6z"></path>
      </g>
    </g>
    <g id="Layer_2"></g>
  </symbol>
</svg>