<svg width="0" height="0" class="hidden">
  <symbol version="1.1" xmlns="http://www.w3.org/2000/svg" xmlns:xlink="http://www.w3.org/1999/xlink" preserveAspectRatio="xMidYMid" viewBox="0 0 256 256" id="typescript">
    <g>
      <polygon fill="#007ACC" transform="translate(128.000000, 128.000000) scale(1, -1) translate(-128.000000, -128.000000) " points="0 128 0 0 128 0 256 0 256 128 256 256 128 256 0 256"></polygon>
      <path d="M146.658132,223.436863 L146.739401,212.953054 L130.079084,212.953054 L113.418767,212.953054 L113.418767,165.613371 L113.418767,118.273689 L101.63464,118.273689 L89.8505126,118.273689 L89.8505126,165.613371 L89.8505126,212.953054 L73.1901951,212.953054 L56.5298776,212.953054 L56.5298776,223.233689 C56.5298776,228.922577 56.6517824,233.676863 56.8143221,233.798768 C56.9362269,233.961308 77.2130522,234.042577 101.797179,234.001943 L146.536227,233.880038 L146.658132,223.436863 Z" fill="#FFFFFF" transform="translate(101.634640, 176.142993) rotate(-180.000000) translate(-101.634640, -176.142993) "></path>
      <path d="M206.566631,234.272145 C213.068219,232.646748 218.025679,229.761668 222.57679,225.048018 C224.933616,222.528653 228.428219,217.936907 228.712663,216.839764 C228.793933,216.514684 217.659965,209.037859 210.914568,204.852462 C210.670758,204.689922 209.69552,205.74643 208.598377,207.371827 C205.306949,212.166748 201.852981,214.239129 196.570441,214.604843 C188.809171,215.133097 183.811076,211.069605 183.851711,204.283573 C183.851711,202.292462 184.136155,201.114049 184.948854,199.488653 C186.65552,195.953414 189.825044,193.840399 199.7806,189.533097 C218.106949,181.649922 225.949489,176.448653 230.825679,169.053097 C236.270758,160.804208 237.489806,147.638494 233.792028,137.845478 C229.728536,127.199129 219.651076,119.966113 205.469489,117.568653 C201.080917,116.796589 190.678377,116.918494 185.964727,117.771827 C175.684092,119.600399 165.931711,124.679764 159.917743,131.343891 C157.560917,133.944526 152.969171,140.730557 153.253616,141.218176 C153.37552,141.380716 154.432028,142.030875 155.610441,142.721668 C156.748219,143.371827 161.05552,145.850557 165.119012,148.207383 L172.473933,152.474049 L174.01806,150.198494 C176.171711,146.907065 180.885362,142.396589 183.729806,140.893097 C191.897425,136.585795 203.112663,137.195319 208.639012,142.15278 C210.995838,144.30643 211.971076,146.541351 211.971076,149.83278 C211.971076,152.799129 211.605362,154.099446 210.061235,156.334367 C208.070123,159.178811 204.006631,161.576272 192.466314,166.574367 C179.259965,172.263256 173.571076,175.798494 168.369806,181.406113 C165.362822,184.656907 162.518377,189.858176 161.339965,194.206113 C160.364727,197.822621 160.120917,206.884208 160.892981,210.541351 C163.61552,223.300716 173.245996,232.199764 187.143139,234.841034 C191.653616,235.694367 202.137425,235.369287 206.566631,234.272145 Z" fill="#FFFFFF" transform="translate(194.578507, 176.190240) scale(1, -1) translate(-194.578507, -176.190240) "></path>
    </g>
  </symbol>
  <symbol version="1.1" xmlns="http://www.w3.org/2000/svg" xmlns:xlink="http://www.w3.org/1999/xlink" preserveAspectRatio="xMidYMid" viewBox="0 -17.5 256 256" id="vue">
    <g>
      <path d="M204.8,0 L256,0 L128,220.8 L0,0 L50.56,0 L97.92,0 L128,51.2 L157.44,0 L204.8,0 Z" fill="#41B883"></path>
      <path d="M0,0 L128,220.8 L256,0 L204.8,0 L128,132.48 L50.56,0 L0,0 Z" fill="#41B883"></path>
      <path d="M50.56,0 L128,133.12 L204.8,0 L157.44,0 L128,51.2 L97.92,0 L50.56,0 Z" fill="#35495E"></path>
    </g>
  </symbol>
  <symbol xmlns="http://www.w3.org/2000/svg" viewBox="0 0 32 32" id="css">
    <title>file_type_css</title>
    <polygon points="5.902 27.201 3.656 2 28.344 2 26.095 27.197 15.985 30 5.902 27.201" style="fill:#1572b6"></polygon>
    <polygon points="16 27.858 24.17 25.593 26.092 4.061 16 4.061 16 27.858" style="fill:#33a9dc"></polygon>
    <polygon points="16 13.191 20.09 13.191 20.372 10.026 16 10.026 16 6.935 16.011 6.935 23.75 6.935 23.676 7.764 22.917 16.282 16 16.282 16 13.191" style="fill:#fff"></polygon>
    <polygon points="16.019 21.218 16.005 21.222 12.563 20.292 12.343 17.827 10.67 17.827 9.24 17.827 9.673 22.68 16.004 24.438 16.019 24.434 16.019 21.218" style="fill:#ebebeb"></polygon>
    <polygon points="19.827 16.151 19.455 20.29 16.008 21.22 16.008 24.436 22.344 22.68 22.391 22.158 22.928 16.151 19.827 16.151" style="fill:#fff"></polygon>
    <polygon points="16.011 6.935 16.011 8.855 16.011 10.018 16.011 10.026 8.555 10.026 8.555 10.026 8.545 10.026 8.483 9.331 8.342 7.764 8.268 6.935 16.011 6.935" style="fill:#ebebeb"></polygon>
    <polygon points="16 13.191 16 15.111 16 16.274 16 16.282 12.611 16.282 12.611 16.282 12.601 16.282 12.539 15.587 12.399 14.02 12.325 13.191 16 13.191" style="fill:#ebebeb"></polygon>
  </symbol>
  <symbol version="1.1" xmlns="http://www.w3.org/2000/svg" xmlns:xlink="http://www.w3.org/1999/xlink" preserveAspectRatio="xMidYMid" viewBox="0 -15.5 256 256" id="eslint">
    <g>
      <path d="M77.9645944,80.5683518 L126.534904,52.5264993 C127.750365,51.8245002 129.248632,51.8245002 130.464093,52.5264993 L179.035406,80.5683518 C180.249864,81.2703508 181,82.5670433 181,83.9710413 L181,140.054746 C181,141.457742 180.249864,142.755437 179.035406,143.458439 L130.464093,171.500291 C129.248632,172.20229 127.750365,172.20229 126.534904,171.500291 L77.9645944,143.458439 C76.7491332,142.75644 76,141.458744 76,140.054746 L76,83.9710413 C76.0010029,82.5670433 76.7501361,81.2703508 77.9645944,80.5683518" fill="#8080F2"></path>
      <path d="M254.4167,107.416596 L196.323141,6.34980392 C194.212911,2.69552941 190.314709,-1.42108547e-14 186.095253,-1.42108547e-14 L69.9061271,-1.42108547e-14 C65.6856677,-1.42108547e-14 61.7864612,2.69552941 59.6762315,6.34980392 L1.58267227,107.193725 C-0.527557422,110.849004 -0.527557422,115.462024 1.58267227,119.117302 L59.6762315,219.355859 C61.7864612,223.010133 65.6856677,224.878431 69.9061271,224.878431 L186.094249,224.878431 C190.313705,224.878431 194.212911,223.066353 196.322137,219.411075 L254.415696,119.008878 C256.527934,115.355608 256.527934,111.070871 254.4167,107.416596 L254.4167,107.416596 Z M206.312097,156.016439 C206.312097,157.502243 205.417609,158.876612 204.129585,159.620518 L130.130998,202.31429 C128.843979,203.057192 127.231691,203.057192 125.944672,202.31429 L51.8888615,159.620518 C50.6018422,158.876612 49.7013303,157.503247 49.7013303,156.016439 L49.7013303,70.6278902 C49.7013303,69.1410824 50.5887913,67.7677176 51.8768145,67.0238118 L125.87239,24.3300392 C127.159409,23.5861333 128.769689,23.5861333 130.056708,24.3300392 L204.117538,67.0238118 C205.405562,67.7677176 206.312097,69.1410824 206.312097,70.6278902 L206.312097,156.016439 L206.312097,156.016439 Z" fill="#4B32C3"></path>
    </g>
  </symbol>
  <symbol version="1.1" xmlns="http://www.w3.org/2000/svg" xmlns:xlink="http://www.w3.org/1999/xlink" preserveAspectRatio="xMidYMid" viewBox="-64 0 384 384" id="figma">
    <g>
      <path d="M64,384 C99.328,384 128,355.328 128,320 L128,256 L64,256 C28.672,256 0,284.672 0,320 C0,355.328 28.672,384 64,384 Z" fill="#0ACF83"></path>
      <path d="M0,192 C0,156.672 28.672,128 64,128 L128,128 L128,256 L64,256 C28.672,256 0,227.328 0,192 Z" fill="#A259FF"></path>
      <path d="M0,64 C0,28.672 28.672,0 64,0 L128,0 L128,128 L64,128 C28.672,128 0,99.328 0,64 Z" fill="#F24E1E"></path>
      <path d="M128,0 L192,0 C227.328,0 256,28.672 256,64 C256,99.328 227.328,128 192,128 L128,128 L128,0 Z" fill="#FF7262"></path>
      <path d="M256,192 C256,227.328 227.328,256 192,256 C156.672,256 128,227.328 128,192 C128,156.672 156.672,128 192,128 C227.328,128 256,156.672 256,192 Z" fill="#1ABCFE"></path>
    </g>
  </symbol>
  <symbol fill="none" xmlns="http://www.w3.org/2000/svg" viewBox="0 0 32 32" id="git">
    <path d="M2.58536 17.4132C1.80488 16.6327 1.80488 15.3673 2.58536 14.5868L14.5868 2.58536C15.3673 1.80488 16.6327 1.80488 17.4132 2.58536L29.4146 14.5868C30.1951 15.3673 30.1951 16.6327 29.4146 17.4132L17.4132 29.4146C16.6327 30.1951 15.3673 30.1951 14.5868 29.4146L2.58536 17.4132Z" fill="#EE513B"></path>
    <path d="M12.1489 5.06152L10.9336 6.27686L14.0725 9.41577C13.9455 9.68819 13.8746 9.99201 13.8746 10.3124C13.8746 11.222 14.4461 11.9981 15.2496 12.3012V19.9798C14.4461 20.2829 13.8746 21.059 13.8746 21.9686C13.8746 23.1422 14.826 24.0936 15.9996 24.0936C17.1732 24.0936 18.1246 23.1422 18.1246 21.9686C18.1246 21.144 17.6549 20.429 16.9684 20.0768V12.3117L19.9689 15.3122C19.8481 15.5791 19.7809 15.8754 19.7809 16.1874C19.7809 17.361 20.7323 18.3124 21.9059 18.3124C23.0795 18.3124 24.0309 17.361 24.0309 16.1874C24.0309 15.0138 23.0795 14.0624 21.9059 14.0624C21.6778 14.0624 21.4582 14.0983 21.2522 14.1648L18.0297 10.9423C18.0914 10.7433 18.1246 10.5317 18.1246 10.3124C18.1246 9.13878 17.1732 8.18738 15.9996 8.18738C15.7803 8.18738 15.5688 8.22061 15.3697 8.2823L12.1489 5.06152Z" fill="white"></path>
  </symbol>
  <symbol fill="none" xmlns="http://www.w3.org/2000/svg" viewBox="0 0 32 32" id="html">
    <path d="M6 28L4 3H28L26 28L16 31L6 28Z" fill="#E44D26"></path>
    <path d="M26 5H16V29.5L24 27L26 5Z" fill="#F16529"></path>
    <path d="M9.5 17.5L8.5 8H24L23.5 11H11.5L12 14.5H23L22 24L16 26L10 24L9.5 19H12.5L13 21.5L16 22.5L19 21.5L19.5 17.5H9.5Z" fill="white"></path>
  </symbol>
  <symbol xmlns="http://www.w3.org/2000/svg" viewBox="0 0 32 32" id="jest">
    <title>file_type_jest</title>
    <path d="M27.089,15.786a2.606,2.606,0,0,0-2.606-2.606,2.633,2.633,0,0,0-.274.014l3.58-10.558H12.576l3.575,10.549c-.052,0-.105-.005-.158-.005a2.606,2.606,0,0,0-.791,5.09,11.383,11.383,0,0,1-2.049,2.579A10.436,10.436,0,0,1,9.5,23.116a3.323,3.323,0,0,1-1.665-4.23c.077-.18.155-.362.229-.544a2.607,2.607,0,1,0-2.09-.4,20.134,20.134,0,0,0-1.889,4.787c-.354,2.135,0,4.4,1.845,5.681,4.3,2.981,8.969-1.848,13.891-3.061,1.784-.44,3.742-.369,5.313-1.279a4.45,4.45,0,0,0,2.179-3.088,4.639,4.639,0,0,0-.831-3.522,2.6,2.6,0,0,0,.606-1.671ZM18.6,15.8v-.009a2.6,2.6,0,0,0-1.256-2.23L20.188,7.8l2.85,5.814a2.6,2.6,0,0,0-1.161,2.169c0,.019,0,.038,0,.057L18.6,15.8Z" style="fill:#c63d14"></path>
    <path d="M27.726,15.786A3.247,3.247,0,0,0,25.083,12.6L28.677,2H11.689l3.6,10.621a3.241,3.241,0,0,0-1,5.918,10.865,10.865,0,0,1-1.568,1.846,9.827,9.827,0,0,1-3.16,2.03,2.656,2.656,0,0,1-1.134-3.28l.04-.093.074-.175a3.245,3.245,0,1,0-3.34-.754c-.108.231-.222.465-.339.706a14,14,0,0,0-1.4,3.8c-.465,2.8.285,5.043,2.111,6.308A5.751,5.751,0,0,0,8.934,30c2.132,0,4.289-1.071,6.4-2.119a23.672,23.672,0,0,1,4.642-1.918c.577-.142,1.171-.228,1.8-.319a9.977,9.977,0,0,0,3.68-1.028,5.09,5.09,0,0,0,2.487-3.53,5.255,5.255,0,0,0-.691-3.613,3.223,3.223,0,0,0,.475-1.688Zm-1.273,0a1.97,1.97,0,1,1-1.97-1.97,1.972,1.972,0,0,1,1.97,1.97ZM26.9,3.273l-3.174,9.36a3.2,3.2,0,0,0-.4.125l-3.135-6.4L17.046,12.72a3.2,3.2,0,0,0-.419-.114L13.464,3.273ZM15.993,13.816a1.97,1.97,0,1,1-1.97,1.97,1.972,1.972,0,0,1,1.97-1.97Zm-8.522.019A1.97,1.97,0,1,1,5.5,15.8a1.972,1.972,0,0,1,1.97-1.97Zm19.217,7.034a3.82,3.82,0,0,1-1.871,2.646,8.9,8.9,0,0,1-3.223.869c-.632.091-1.285.185-1.924.343a24.587,24.587,0,0,0-4.9,2.013c-3.164,1.571-5.9,2.928-8.472,1.143-1.887-1.308-1.8-3.728-1.58-5.054A12.82,12.82,0,0,1,6,19.376c.092-.189.182-.375.27-.559a3.215,3.215,0,0,0,.838.21,3.965,3.965,0,0,0,2.1,4.655l.245.126.259-.092a11.029,11.029,0,0,0,3.875-2.4,12.078,12.078,0,0,0,1.918-2.319,3.241,3.241,0,0,0,2.64-5.627l2.038-4.121,2.059,4.2a3.24,3.24,0,0,0,4.088,5,3.957,3.957,0,0,1,.355,2.422Z" style="fill:#fff"></path>
  </symbol>
  <symbol fill="none" xmlns="http://www.w3.org/2000/svg" viewBox="0 0 32 32" id="js">
    <rect x="2" y="2" width="28" height="28" fill="#FFCA28"></rect>
    <path d="M19 25.2879L21.0615 23.9237C21.2231 24.4313 22.2462 25.6368 23.5385 25.6368C24.8308 25.6368 25.4308 24.931 25.4308 24.463C25.4308 23.1878 24.1112 22.7382 23.4774 22.5223C23.374 22.4871 23.289 22.4581 23.2308 22.4328C23.2009 22.4198 23.1558 22.4025 23.0979 22.3804C22.393 22.1111 19.7923 21.1175 19.7923 18.2373C19.7923 15.065 22.8538 14.7002 23.5462 14.7002C23.9991 14.7002 26.1769 14.7557 27.2615 16.7939L25.2615 18.1898C24.8231 17.3015 24.0946 17.0081 23.6462 17.0081C22.5385 17.0081 22.3077 17.8201 22.3077 18.1898C22.3077 19.227 23.5112 19.6919 24.5273 20.0844C24.7932 20.1871 25.0462 20.2848 25.2615 20.3866C26.3692 20.91 28 21.7666 28 24.463C28 25.8136 26.8672 28.0002 24.0154 28.0002C20.1846 28.0002 19.1692 25.7003 19 25.2879Z" fill="#3E3E3E"></path>
    <path d="M9 25.5587L11.1487 24.1953C11.317 24.7026 11.9713 25.638 12.9205 25.638C13.8698 25.638 14.3557 24.663 14.3557 24.1953V15.0002H16.9982V24.1953C17.041 25.4636 16.3376 28.0002 13.2332 28.0002C10.379 28.0002 9.19242 26.3039 9 25.5587Z" fill="#3E3E3E"></path>
  </symbol>
  <symbol fill="none" xmlns="http://www.w3.org/2000/svg" viewBox="0 0 24 24" id="nextjs">
    <g clip-path="url(#clip0)">
      <path d="M11.2141 0.00645944C11.1625 0.0111515 10.9982 0.0275738 10.8504 0.039304C7.44164 0.346635 4.24868 2.18593 2.22639 5.01291C1.10029 6.58476 0.380059 8.36775 0.107918 10.2563C0.0117302 10.9156 0 11.1103 0 12.0041C0 12.898 0.0117302 13.0927 0.107918 13.7519C0.760117 18.2587 3.96716 22.0452 8.31672 23.4481C9.0956 23.6991 9.91672 23.8704 10.8504 23.9736C11.2141 24.0135 12.7859 24.0135 13.1496 23.9736C14.7613 23.7953 16.1267 23.3965 17.4733 22.7091C17.6798 22.6035 17.7196 22.5754 17.6915 22.5519C17.6727 22.5378 16.793 21.3578 15.7372 19.9314L13.8182 17.339L11.4135 13.7801C10.0903 11.8235 9.00176 10.2235 8.99238 10.2235C8.98299 10.2211 8.97361 11.8024 8.96891 13.7331C8.96188 17.1138 8.95953 17.2499 8.9173 17.3296C8.85631 17.4446 8.80938 17.4915 8.71085 17.5431C8.63578 17.5807 8.57009 17.5877 8.21584 17.5877H7.80997L7.70205 17.5197C7.63167 17.4751 7.58006 17.4164 7.54487 17.3484L7.4956 17.2428L7.50029 12.539L7.50733 7.83285L7.58006 7.74136C7.6176 7.69209 7.69736 7.62875 7.75367 7.59825C7.84985 7.55133 7.88739 7.54664 8.29325 7.54664C8.77185 7.54664 8.85161 7.5654 8.97595 7.70147C9.01114 7.73901 10.3132 9.7003 11.871 12.0628C13.4287 14.4252 15.5589 17.651 16.6053 19.2346L18.5056 22.1132L18.6018 22.0499C19.4534 21.4962 20.3543 20.7079 21.0674 19.8868C22.5853 18.1437 23.5636 16.0182 23.8921 13.7519C23.9883 13.0927 24 12.898 24 12.0041C24 11.1103 23.9883 10.9156 23.8921 10.2563C23.2399 5.74957 20.0328 1.96306 15.6833 0.560125C14.9161 0.311445 14.0997 0.140184 13.1848 0.036958C12.9595 0.0134976 11.4088 -0.0123089 11.2141 0.00645944ZM16.1267 7.26511C16.2393 7.32142 16.3308 7.42933 16.3636 7.54194C16.3824 7.60294 16.3871 8.90734 16.3824 11.8469L16.3754 16.0651L15.6317 14.9249L14.8856 13.7848V10.7185C14.8856 8.73608 14.895 7.62171 14.9091 7.56775C14.9466 7.43637 15.0287 7.33315 15.1413 7.27215C15.2375 7.22288 15.2727 7.21819 15.6411 7.21819C15.9883 7.21819 16.0493 7.22288 16.1267 7.26511Z" fill="#000000"></path>
    </g>
    <defs>
      <clipPath id="clip0">
        <rect width="24" height="24" fill="white"></rect>
      </clipPath>
    </defs>
  </symbol>
  <symbol version="1.1" xmlns="http://www.w3.org/2000/svg" xmlns:xlink="http://www.w3.org/1999/xlink" preserveAspectRatio="xMidYMid" viewBox="0 0 256 331" id="pinia">
    <title>Pinia</title>
    <defs>
      <linearGradient x1="55.342075%" y1="0%" x2="42.816933%" y2="42.862855%" id="piniaLinearGradient-1">
        <stop stop-color="#52CE63" offset="0%"></stop>
        <stop stop-color="#51A256" offset="100%"></stop>
      </linearGradient>
      <linearGradient x1="55.348642%" y1="0%" x2="42.808103%" y2="42.862855%" id="piniaLinearGradient-2">
        <stop stop-color="#52CE63" offset="0%"></stop>
        <stop stop-color="#51A256" offset="100%"></stop>
      </linearGradient>
      <linearGradient x1="50%" y1="0%" x2="50%" y2="58.811243%" id="piniaLinearGradient-3">
        <stop stop-color="#8AE99C" offset="0%"></stop>
        <stop stop-color="#52CE63" offset="100%"></stop>
      </linearGradient>
      <linearGradient x1="51.37763%" y1="17.472551%" x2="44.584719%" y2="100%" id="piniaLinearGradient-4">
        <stop stop-color="#FFE56C" offset="0%"></stop>
        <stop stop-color="#FFC63A" offset="100%"></stop>
      </linearGradient>
    </defs>
    <g>
      <path d="M67.559655,173.328355 C97.9259569,170.343293 108.640648,145.679806 112.295008,108.504905 C115.949368,71.3300038 91.1213747,37.6908582 80.7932634,38.7061302 C70.4651528,39.7214023 37.6422698,79.0277331 33.9879096,116.202635 C30.3335494,153.377536 37.1933525,176.313418 67.559655,173.328355 Z" fill="url(#piniaLinearGradient-1)" transform="translate(72.876665, 106.136087) rotate(-38.000000) translate(-72.876665, -106.136087) "></path>
      <path d="M184.454259,186.277487 C214.820562,189.26255 220.848105,166.244855 217.193745,129.069953 C213.539385,91.8950525 181.548761,52.670534 171.22065,51.655262 C160.892539,50.63999 135.232286,84.1973232 138.886647,121.372224 C142.541007,158.547125 154.087957,183.292425 184.454259,186.277487 Z" fill="url(#piniaLinearGradient-2)" transform="translate(178.339794, 119.084792) rotate(52.000000) translate(-178.339794, -119.084792) "></path>
      <path d="M129.232337,151.601006 C156.573231,151.601006 164.11033,125.416841 164.11033,84.5875801 C164.11033,43.7583187 138.531454,3.74517147 129.232337,3.74517147 C119.93322,3.74517147 93.6050019,43.7583187 93.6050019,84.5875801 C93.6050019,125.416841 101.891443,151.601006 129.232337,151.601006 Z" fill="url(#piniaLinearGradient-3)" transform="translate(128.857666, 77.673089) rotate(7.000000) translate(-128.857666, -77.673089) "></path>
      <path d="M113.385791,330.307183 C170.282122,330.307183 216.423871,313.779401 216.423871,238.824707 C216.423871,163.870013 170.282122,102.362772 113.385791,102.362772 C56.4894592,102.362772 10.3840274,163.870013 10.3840274,238.824707 C10.3840274,313.779401 56.4894592,330.307183 113.385791,330.307183 Z" fill="url(#piniaLinearGradient-4)"></path>
      <ellipse fill="#EAADCC" cx="165.427298" cy="216.677236" rx="14.7171317" ry="6.84517753"></ellipse>
      <ellipse fill="#EAADCC" transform="translate(57.273494, 212.570129) rotate(7.000000) translate(-57.273494, -212.570129) " cx="57.2734938" cy="212.570129" rx="14.7171317" ry="6.84517752"></ellipse>
      <path d="M121.06293,209.635735 C121.646667,208.663347 122.908156,208.348283 123.880544,208.93202 C124.852932,209.515758 125.167995,210.777246 124.584258,211.749634 C121.682177,216.583913 116.984385,219.547755 110.655726,220.608936 C104.354402,221.665533 98.6093579,220.337697 93.5483956,216.647065 C92.6320268,215.978817 92.4308854,214.694231 93.0991337,213.777862 C93.767382,212.861494 95.051968,212.660352 95.9683367,213.328601 C100.130898,216.364086 104.757696,217.433465 109.976534,216.558378 C115.168037,215.687873 118.808555,213.391067 121.06293,209.635735 Z" fill="#000000" transform="translate(108.791064, 214.799573) scale(-1, 1) rotate(3.000000) translate(-108.791064, -214.799573) "></path>
      <path d="M66.3331568,178.621277 C62.2688018,178.621277 58.5893567,180.268431 55.9259925,182.931552 C53.262575,185.594727 51.6152557,189.273921 51.6152557,193.338024 C51.6152557,197.402477 53.2625394,201.081797 55.9258632,203.74504 C58.5892437,206.408339 62.2687395,208.05554 66.3331568,208.05554 C70.3972133,208.05554 74.0763505,206.408324 76.7394606,203.744971 C79.4024394,201.08175 81.0495191,197.40246 81.0495191,193.338024 C81.0495191,189.273938 79.4024038,185.594774 76.7393319,182.931621 C74.0762368,180.268445 70.397151,178.621277 66.3331568,178.621277 Z" fill="#000000" transform="translate(66.332387, 193.338409) scale(-1, 1) rotate(2.000000) translate(-66.332387, -193.338409) "></path>
      <path d="M57.0104955,191.099336 C57.0104955,188.4533 59.1567064,186.307712 61.801718,186.307712 C64.4483367,186.307712 66.5937441,188.4533 66.5937441,191.099336 C66.5937441,193.745373 64.4483367,195.890961 61.801718,195.890961 C59.1567064,195.890157 57.0104955,193.745373 57.0104955,191.099336 Z" fill="#FFFFFF" transform="translate(61.802120, 191.099336) scale(-1, 1) rotate(2.000000) translate(-61.802120, -191.099336) "></path>
      <path d="M155.50438,182.356672 C151.440036,182.356672 147.760824,184.003805 145.097661,186.666887 C142.434411,189.330056 140.787248,193.00927 140.787248,197.073419 C140.787248,201.137918 142.434376,204.817258 145.097532,207.480495 C147.760711,210.143755 151.439974,211.790935 155.50438,211.790935 C159.568448,211.790935 163.247817,210.143699 165.911129,207.480306 C168.574276,204.817079 170.221512,201.13781 170.221512,197.073419 C170.221512,193.009378 168.57424,189.330235 165.911,186.667076 C163.247704,184.003861 159.568385,182.356672 155.50438,182.356672 Z" fill="#000000" transform="translate(155.504380, 197.073804) scale(-1, 1) rotate(2.000000) translate(-155.504380, -197.073804) "></path>
      <path d="M65.710496,175.551815 C75.534413,175.208757 83.7759539,182.893524 84.1189939,192.716902 C84.4620544,202.54087 76.7768358,210.78199 66.952741,211.125055 C57.1293924,211.468094 48.8888139,203.783092 48.5457542,193.959147 C48.2027151,184.135792 55.8873252,175.894848 65.710496,175.551815 Z M77.962087,192.931906 C77.7377925,186.508952 72.3491093,181.484405 65.9254999,181.708722 C59.5027162,181.933011 54.4783646,187.321133 54.702661,193.744143 C54.9269805,200.167812 60.314844,205.192441 66.737737,204.968148 C73.1614557,204.743827 78.1864045,199.355518 77.962087,192.931906 Z" fill="#FFFFFF"></path>
      <path d="M154.883258,179.287184 C164.70702,178.94413 172.947941,186.628765 173.290987,196.452297 C173.634053,206.27642 165.949442,214.517364 156.125503,214.860423 C146.301999,215.203468 138.060801,207.518332 137.717747,197.694542 C137.374713,187.871342 145.059932,179.630222 154.883258,179.287184 Z M167.13408,196.667301 C166.909779,190.244181 161.521705,185.219779 155.098262,185.444091 C148.675312,185.668385 143.650363,191.056694 143.874654,197.479538 C144.098968,203.903041 149.48744,208.927815 155.910499,208.703517 C162.334051,208.479201 167.358403,203.091079 167.13408,196.667301 Z" fill="#FFFFFF"></path>
      <path d="M146.182488,194.834732 C146.182488,192.188695 148.328076,190.043107 150.974113,190.043107 C153.620149,190.043107 155.765737,192.188695 155.765737,194.834732 C155.765737,197.480769 153.620149,199.626356 150.974113,199.626356 C148.328076,199.626356 146.182488,197.480769 146.182488,194.834732 Z" fill="#FFFFFF" transform="translate(150.974113, 194.834732) scale(-1, 1) rotate(2.000000) translate(-150.974113, -194.834732) "></path>
      <path d="M38.0834294,243.160497 L60.4133717,266.395125 L76.4348894,249.351319 C77.8590008,247.836307 80.2416313,247.762617 81.7566434,249.186728 C83.2716556,250.61084 83.3453452,252.99347 81.9212337,254.508482 L65.6376112,271.831565 L88.7377431,295.868364 C90.1785127,297.367543 90.1311624,299.750842 88.6319832,301.191612 C87.132804,302.632381 84.7495047,302.585031 83.3087351,301.085852 L60.4736093,277.32482 L49.7488993,288.73437 C48.3247879,290.249382 45.9421575,290.323072 44.4271453,288.89896 C42.9121332,287.474849 42.8384436,285.092219 44.262555,283.577206 L55.2493698,271.889065 L32.6544214,248.377985 C31.2136518,246.878806 31.2610021,244.495506 32.7601813,243.054737 C34.2593604,241.613967 36.6426598,241.661318 38.0834294,243.160497 Z" fill="#ECB732"></path>
      <path d="M188.039951,243.160497 C189.480721,241.661318 191.86402,241.613967 193.363199,243.054737 C194.862379,244.495506 194.909729,246.878806 193.468959,248.377985 L170.873317,271.889065 L181.860826,283.577206 C183.245378,285.050135 183.214186,287.34315 181.819149,288.778105 L181.696235,288.89896 C180.181223,290.323072 177.798593,290.249382 176.374481,288.73437 L165.649078,277.32482 L142.814646,301.085852 C141.413897,302.543387 139.122255,302.628631 137.618337,301.308232 L137.491397,301.191612 C135.992218,299.750842 135.944868,297.367543 137.385638,295.868364 L160.485076,271.831565 L144.202147,254.508482 C142.817594,253.035554 142.848787,250.742539 144.243824,249.307584 L144.366737,249.186728 C145.881749,247.762617 148.26438,247.836307 149.688491,249.351319 L165.709315,266.395125 L188.039951,243.160497 Z" fill="#ECB732"></path>
      <path d="M136.601631,126.739074 C138.071896,128.209338 138.071896,130.593108 136.601631,132.063372 L119.071072,149.594497 L129.756454,160.280443 C131.185877,161.709867 131.225584,164.002751 129.875572,165.480145 L129.756454,165.604742 C128.286189,167.075007 125.902419,167.075007 124.432155,165.604742 L113.746208,154.91936 L103.060261,165.604742 C101.589997,167.075007 99.2062271,167.075007 97.7359626,165.604742 C96.2656982,164.134478 96.2656982,161.750708 97.7359626,160.280443 L108.421345,149.594497 L90.8907851,132.063372 C89.4613613,130.633948 89.4216551,128.341065 90.7716664,126.863671 L90.8907851,126.739074 C92.3610495,125.268809 94.7448192,125.268809 96.2150837,126.739074 L113.746208,144.269633 L131.277333,126.739074 C132.747597,125.268809 135.131367,125.268809 136.601631,126.739074 Z" fill="#FFC73B"></path>
    </g>
  </symbol>
  <symbol version="1.1" xmlns="http://www.w3.org/2000/svg" xmlns:xlink="http://www.w3.org/1999/xlink" preserveAspectRatio="xMidYMid" viewBox="0 0 256 256" id="prettier">
    <g>
      <rect fill="#56B3B4" x="182.857143" y="48.7619048" width="24.3809524" height="12.1904762" rx="5"></rect>
      <rect fill="#EA5E5E" x="0" y="243.809524" width="73.1428571" height="12.1904762" rx="5"></rect>
      <rect fill="#BF85BF" x="146.285714" y="146.285714" width="48.7619048" height="12.1904762" rx="5"></rect>
      <rect fill="#EA5E5E" x="73.1428571" y="146.285714" width="60.952381" height="12.1904762" rx="5"></rect>
      <rect fill="#56B3B4" x="0" y="146.285714" width="60.952381" height="12.1904762" rx="5"></rect>
      <rect fill="#BF85BF" x="0" y="195.047619" width="73.1428571" height="12.1904762" rx="5"></rect>
      <rect fill="#BF85BF" x="0" y="97.5238095" width="73.1428571" height="12.1904762" rx="5"></rect>
      <rect fill="#F7BA3E" x="60.952381" y="24.3809524" width="134.095238" height="12.1904762" rx="5"></rect>
      <rect fill="#EA5E5E" x="0" y="24.3809524" width="48.7619048" height="12.1904762" rx="5"></rect>
      <rect fill="#F7BA3E" x="48.7619048" y="219.428571" width="24.3809524" height="12.1904762" rx="5"></rect>
      <rect fill="#56B3B4" x="48.7619048" y="73.1428571" width="24.3809524" height="12.1904762" rx="5"></rect>
      <rect fill="#56B3B4" x="0" y="219.428571" width="36.5714286" height="12.1904762" rx="5"></rect>
      <rect fill="#F7BA3E" x="0" y="73.1428571" width="36.5714286" height="12.1904762" rx="5"></rect>
      <rect fill="#D0D4D8" opacity="0.5" x="158.47619" y="219.428571" width="24.3809524" height="12.1904762" rx="5"></rect>
      <rect fill="#D0D4D8" opacity="0.5" x="85.3333333" y="219.428571" width="60.952381" height="12.1904762" rx="5"></rect>
      <rect fill="#D0D4D8" opacity="0.5" x="195.047619" y="219.428571" width="60.952381" height="12.1904762" rx="5"></rect>
      <rect fill="#56B3B4" x="97.5238095" y="121.904762" width="109.714286" height="12.1904762" rx="5"></rect>
      <rect fill="#F7BA3E" x="36.5714286" y="121.904762" width="48.7619048" height="12.1904762" rx="5"></rect>
      <rect fill="#EA5E5E" x="0" y="121.904762" width="24.3809524" height="12.1904762" rx="5"></rect>
      <rect fill="#BF85BF" x="109.714286" y="48.7619048" width="60.952381" height="12.1904762" rx="5"></rect>
      <rect fill="#56B3B4" x="0" y="48.7619048" width="97.5238095" height="12.1904762" rx="5"></rect>
      <rect fill="#F7BA3E" x="36.5714286" y="170.666667" width="121.904762" height="12.1904762" rx="5"></rect>
      <rect fill="#BF85BF" x="0" y="170.666667" width="24.3809524" height="12.1904762" rx="5"></rect>
      <rect fill="#EA5E5E" x="146.285714" y="73.1428571" width="73.1428571" height="12.1904762" rx="5"></rect>
      <rect fill="#F7BA3E" x="146.285714" y="97.5238095" width="73.1428571" height="12.1904762" rx="5"></rect>
      <rect fill="#56B3B4" x="0" y="0" width="158.47619" height="12.1904762" rx="5"></rect>
      <rect fill="#D0D4D8" opacity="0.5" x="170.666667" y="0" width="85.3333333" height="12.1904762" rx="5"></rect>
      <rect fill="#D0D4D8" opacity="0.5" x="170.666667" y="170.666667" width="36.5714286" height="12.1904762" rx="5"></rect>
      <rect fill="#D0D4D8" opacity="0.5" x="219.428571" y="170.666667" width="36.5714286" height="12.1904762" rx="5"></rect>
      <rect fill="#D0D4D8" opacity="0.5" x="207.238095" y="146.285714" width="48.7619048" height="12.1904762" rx="5"></rect>
      <rect fill="#D0D4D8" opacity="0.5" x="207.238095" y="24.3809524" width="48.7619048" height="12.1904762" rx="5"></rect>
      <rect fill="#D0D4D8" opacity="0.5" x="219.428571" y="121.904762" width="36.5714286" height="12.1904762" rx="5"></rect>
      <rect fill="#D0D4D8" opacity="0.5" x="219.428571" y="48.7619048" width="36.5714286" height="12.1904762" rx="5"></rect>
      <rect fill="#D0D4D8" opacity="0.5" x="231.619048" y="73.1428571" width="24.3809524" height="12.1904762" rx="5"></rect>
      <rect fill="#D0D4D8" opacity="0.5" x="231.619048" y="97.5238095" width="24.3809524" height="12.1904762" rx="5"></rect>
      <rect fill="#D0D4D8" opacity="0.5" x="134.095238" y="195.047619" width="121.904762" height="12.1904762" rx="5"></rect>
      <rect fill="#D0D4D8" opacity="0.5" x="85.3333333" y="195.047619" width="36.5714286" height="12.1904762" rx="5"></rect>
      <rect fill="#D0D4D8" opacity="0.5" x="182.857143" y="243.809524" width="73.1428571" height="12.1904762" rx="5"></rect>
      <rect fill="#D0D4D8" opacity="0.5" x="85.3333333" y="243.809524" width="85.3333333" height="12.1904762" rx="5"></rect>
      <rect fill="#D0D4D8" opacity="0.5" x="85.3333333" y="73.1428571" width="48.7619048" height="12.1904762" rx="5"></rect>
      <rect fill="#D0D4D8" opacity="0.5" x="85.3333333" y="97.5238095" width="48.7619048" height="12.1904762" rx="5"></rect>
    </g>
  </symbol>
  <symbol fill="none" xmlns="http://www.w3.org/2000/svg" viewBox="0 0 32 32" id="react">
    <path d="M18.6789 15.9759C18.6789 14.5415 17.4796 13.3785 16 13.3785C14.5206 13.3785 13.3211 14.5415 13.3211 15.9759C13.3211 17.4105 14.5206 18.5734 16 18.5734C17.4796 18.5734 18.6789 17.4105 18.6789 15.9759Z" fill="#53C1DE"></path>
    <path fill-rule="evenodd" clip-rule="evenodd" d="M24.7004 11.1537C25.2661 8.92478 25.9772 4.79148 23.4704 3.39016C20.9753 1.99495 17.7284 4.66843 16.0139 6.27318C14.3044 4.68442 10.9663 2.02237 8.46163 3.42814C5.96751 4.82803 6.73664 8.8928 7.3149 11.1357C4.98831 11.7764 1 13.1564 1 15.9759C1 18.7874 4.98416 20.2888 7.29698 20.9289C6.71658 23.1842 5.98596 27.1909 8.48327 28.5877C10.9973 29.9932 14.325 27.3945 16.0554 25.7722C17.7809 27.3864 20.9966 30.0021 23.4922 28.6014C25.9956 27.1963 25.3436 23.1184 24.7653 20.8625C27.0073 20.221 31 18.7523 31 15.9759C31 13.1835 26.9903 11.7923 24.7004 11.1537ZM24.4162 19.667C24.0365 18.5016 23.524 17.2623 22.8971 15.9821C23.4955 14.7321 23.9881 13.5088 24.3572 12.3509C26.0359 12.8228 29.7185 13.9013 29.7185 15.9759C29.7185 18.07 26.1846 19.1587 24.4162 19.667ZM22.85 27.526C20.988 28.571 18.2221 26.0696 16.9478 24.8809C17.7932 23.9844 18.638 22.9422 19.4625 21.7849C20.9129 21.6602 22.283 21.4562 23.5256 21.1777C23.9326 22.7734 24.7202 26.4763 22.85 27.526ZM9.12362 27.5111C7.26143 26.47 8.11258 22.8946 8.53957 21.2333C9.76834 21.4969 11.1286 21.6865 12.5824 21.8008C13.4123 22.9332 14.2816 23.9741 15.1576 24.8857C14.0753 25.9008 10.9945 28.557 9.12362 27.5111ZM2.28149 15.9759C2.28149 13.874 5.94207 12.8033 7.65904 12.3326C8.03451 13.5165 8.52695 14.7544 9.12123 16.0062C8.51925 17.2766 8.01977 18.5341 7.64085 19.732C6.00369 19.2776 2.28149 18.0791 2.28149 15.9759ZM9.1037 4.50354C10.9735 3.45416 13.8747 6.00983 15.1159 7.16013C14.2444 8.06754 13.3831 9.1006 12.5603 10.2265C11.1494 10.3533 9.79875 10.5569 8.55709 10.8297C8.09125 9.02071 7.23592 5.55179 9.1037 4.50354ZM20.3793 11.5771C21.3365 11.6942 22.2536 11.85 23.1147 12.0406C22.8562 12.844 22.534 13.6841 22.1545 14.5453C21.6044 13.5333 21.0139 12.5416 20.3793 11.5771ZM16.0143 8.0481C16.6054 8.66897 17.1974 9.3623 17.7798 10.1145C16.5985 10.0603 15.4153 10.0601 14.234 10.1137C14.8169 9.36848 15.414 8.67618 16.0143 8.0481ZM9.8565 14.5444C9.48329 13.6862 9.16398 12.8424 8.90322 12.0275C9.75918 11.8418 10.672 11.69 11.623 11.5748C10.9866 12.5372 10.3971 13.5285 9.8565 14.5444ZM11.6503 20.4657C10.6679 20.3594 9.74126 20.2153 8.88556 20.0347C9.15044 19.2055 9.47678 18.3435 9.85796 17.4668C10.406 18.4933 11.0045 19.4942 11.6503 20.4657ZM16.0498 23.9915C15.4424 23.356 14.8365 22.6531 14.2448 21.8971C15.4328 21.9423 16.6231 21.9424 17.811 21.891C17.2268 22.6608 16.6369 23.3647 16.0498 23.9915ZM22.1667 17.4222C22.5677 18.3084 22.9057 19.1657 23.1742 19.9809C22.3043 20.1734 21.3652 20.3284 20.3757 20.4435C21.015 19.4607 21.6149 18.4536 22.1667 17.4222ZM18.7473 20.5941C16.9301 20.72 15.1016 20.7186 13.2838 20.6044C12.2509 19.1415 11.3314 17.603 10.5377 16.0058C11.3276 14.4119 12.2404 12.8764 13.2684 11.4158C15.0875 11.2825 16.9178 11.2821 18.7369 11.4166C19.7561 12.8771 20.6675 14.4086 21.4757 15.9881C20.6771 17.5812 19.7595 19.1198 18.7473 20.5941ZM22.8303 4.4666C24.7006 5.51254 23.8681 9.22726 23.4595 10.8426C22.2149 10.5641 20.8633 10.3569 19.4483 10.2281C18.6239 9.09004 17.7698 8.05518 16.9124 7.15949C18.1695 5.98441 20.9781 3.43089 22.8303 4.4666Z" fill="#53C1DE"></path>
  </symbol>
  <symbol version="1.1" xmlns="http://www.w3.org/2000/svg" xmlns:xlink="http://www.w3.org/1999/xlink" preserveAspectRatio="xMidYMid" viewBox="0 -6 256 256" id="redux">
    <g>
      <path d="M177.380953,169.732752 C186.828305,168.755405 193.995262,160.610839 193.669491,150.83736 C193.34372,141.063881 185.199451,133.245097 175.426328,133.245097 L174.774787,133.245097 C164.675893,133.57088 156.857395,142.041229 157.183166,152.14049 C157.508937,157.02723 159.463561,161.262404 162.395498,164.194448 C151.319292,186.021884 134.379213,201.985233 108.969093,215.342321 C91.7032429,224.464235 73.7858511,227.722061 55.8684592,225.441583 C41.208775,223.486887 29.8067984,216.971234 22.6398417,206.220408 C12.2151773,190.257058 11.237865,172.990579 20.0336756,155.724099 C26.22332,143.344359 35.9964428,134.222445 42.1860873,129.661488 C40.8830043,125.426314 38.9283797,118.259096 37.9510674,113.046574 C-9.28569288,147.253751 -4.39913147,193.514885 9.934782,215.342321 C20.6852171,231.631453 42.5118581,241.730715 66.6188943,241.730715 C73.1343096,241.730715 79.6497248,241.079149 86.16514,239.450236 C127.863797,231.30567 159.463561,206.54619 177.380953,169.732752 Z M234.716607,129.335706 C209.958029,100.341051 173.471704,84.3777023 131.773046,84.3777023 L126.560714,84.3777023 C123.628777,78.5136149 117.439133,74.6042233 110.597947,74.6042233 L109.946406,74.6042233 C99.8475119,74.9300059 92.0290137,83.4003544 92.3547844,93.499616 C92.6805552,103.273095 100.824824,111.091878 110.597947,111.091878 L111.249489,111.091878 C118.416445,110.766096 124.60609,106.205139 127.212256,100.015269 L133.07613,100.015269 C157.834707,100.015269 181.290202,107.182487 202.465302,121.19114 C218.75384,131.941967 230.481587,145.95062 236.997002,162.891317 C242.535105,176.574188 242.209334,189.931276 236.345461,201.333668 C227.223879,218.600148 211.912654,228.047844 191.714866,228.047844 C178.684036,228.047844 166.304747,224.138452 159.789332,221.206409 C156.205854,224.464235 149.690438,229.676757 145.129648,232.934584 C159.13779,239.450236 173.471704,243.033845 187.154076,243.033845 C218.428069,243.033845 241.557793,225.767366 250.353603,208.500886 C259.800955,189.605493 259.149414,157.02723 234.716607,129.335706 Z M69.2250604,175.271057 C69.5508312,185.044536 77.6951002,192.86332 87.468223,192.86332 L88.1197645,192.86332 C98.2186581,192.537537 106.037156,184.067188 105.711386,173.967927 C105.385615,164.194448 97.2413458,156.375664 87.468223,156.375664 L86.8166815,156.375664 C86.16514,156.375664 85.1878277,156.375664 84.5362862,156.701447 C71.179685,134.548228 65.6415821,110.440313 67.5962066,84.3777023 C68.8992897,64.8307442 75.4147049,47.8900472 86.8166815,33.881394 C96.2640336,21.8274365 114.507196,15.9633491 126.886485,15.6375664 C161.418186,14.9860012 176.07787,57.9893089 177.055182,75.2557885 C181.290202,76.2331364 188.457159,78.5136149 193.34372,80.142528 C189.434471,27.3657413 156.857395,0 125.583402,0 C96.2640336,0 69.2250604,21.1758712 58.4746253,52.4510041 C43.4891703,94.1511813 53.2622932,134.222445 71.5054558,165.823361 C69.876602,168.103839 68.8992897,171.687448 69.2250604,175.271057 Z" fill="#764ABC"></path>
    </g>
  </symbol>
  <symbol xmlns="http://www.w3.org/2000/svg" viewBox="0 0 32 32" id="scss">
    <title>file_type_scss2</title>
    <path d="M16,2A14,14,0,1,1,2,16,14,14,0,0,1,16,2Z" fill="#CC6699"></path>
    <path d="M24.782,7.992c-.634-2.486-4.757-3.3-8.659-1.918A19.605,19.605,0,0,0,9.479,9.885c-2.149,2.01-2.492,3.76-2.351,4.491.5,2.58,4.033,4.266,5.486,5.517V19.9c-.428.211-3.564,1.8-4.3,3.42-.774,1.712.123,2.94.718,3.105A4.4,4.4,0,0,0,13.78,24.5a4.824,4.824,0,0,0,.472-4.288,5.639,5.639,0,0,1,2.143-.123c2.456.287,2.938,1.82,2.846,2.462a1.62,1.62,0,0,1-.779,1.1c-.172.107-.225.143-.21.223.021.115.1.111.247.086a1.915,1.915,0,0,0,1.336-1.707c.059-1.5-1.382-3.186-3.934-3.143a6.736,6.736,0,0,0-2.189.3c-.035-.04-.071-.08-.108-.12-1.578-1.683-4.494-2.874-4.371-5.137.045-.823.331-2.989,5.6-5.617,4.32-2.153,7.778-1.56,8.376-.247.854,1.876-1.848,5.361-6.334,5.864a3.37,3.37,0,0,1-2.833-.718c-.236-.26-.271-.271-.359-.223-.143.079-.052.309,0,.445a2.659,2.659,0,0,0,1.621,1.274,8.592,8.592,0,0,0,5.258-.52C23.283,13.362,25.405,10.437,24.782,7.992ZM13.218,20.663a3.584,3.584,0,0,1-.029,2.092q-.035.106-.077.21t-.091.2a3.911,3.911,0,0,1-.647.943c-.813.887-1.95,1.223-2.437.94-.526-.305-.263-1.556.68-2.553a9.478,9.478,0,0,1,2.474-1.762l0,0Z" fill="#FFFFFF"></path>
  </symbol>
  <symbol viewBox="0 0 256 234" version="1.1" xmlns="http://www.w3.org/2000/svg" xmlns:xlink="http://www.w3.org/1999/xlink" preserveAspectRatio="xMidYMid" id="vitest">
    <title>vitest</title>
    <g>
        <path d="M192.115018,70.8083821 L130.914358,159.296327 C130.265568,160.234541 129.327185,160.937354 128.241634,161.298075 C127.156084,161.658796 125.982639,161.655409 124.899291,161.292995 C123.815942,160.928886 122.881962,160.222686 122.23876,159.282779 C121.595728,158.341178 121.278531,157.216676 121.335772,156.08032 L123.78512,107.225806 L84.2429694,98.839802 C83.3978997,98.6607962 82.6105792,98.2768738 81.950612,97.7222438 C81.2906447,97.1677833 80.7783529,96.4595505 80.4592925,95.6603753 C80.1402321,94.8612002 80.0242256,93.9958081 80.121434,93.1407466 C80.2186424,92.2858544 80.5260175,91.4675424 81.0164627,90.7584629 L142.217801,2.27034881 C142.86676,1.33162707 143.805143,0.628982928 144.890693,0.268769843 C145.976413,-0.0914432423 147.149858,-0.0895803631 148.233376,0.27435848 C149.316725,0.638127971 150.250874,1.34398981 150.893906,2.28491313 C151.536938,3.2256671 151.853966,4.34999934 151.796556,5.48737173 L149.347208,54.3423934 L188.88885,62.7277204 C189.73392,62.9067262 190.52141,63.2906486 191.181885,63.8451092 C191.842361,64.3997391 192.353806,65.1079719 192.672189,65.9071471 C192.992265,66.7063222 193.107425,67.5717143 193.010894,68.4266064 C192.914363,69.281668 192.606141,70.09998 192.115018,70.8090595 L192.115018,70.8083821 Z" fill="#FCC72B"/>
        <path d="M128.024524,233.537148 C126.396707,233.538835 124.784639,233.220452 123.280787,232.597234 C121.776936,231.974016 120.410937,231.059512 119.261541,229.907914 L61.4337079,172.084145 C59.1203507,169.758934 57.8236174,166.610668 57.8278409,163.330307 C57.8322544,160.049946 59.1372859,156.903374 61.4570785,154.584936 C63.7767018,152.264805 66.9217498,150.959096 70.20228,150.954015 C73.4829795,150.950628 76.631584,152.246176 78.9576426,154.559533 L128.024524,203.620996 L234.917207,96.7333937 C237.247499,94.4406975 240.388991,93.1617463 243.657497,93.1750213 C246.927697,93.1883347 250.059027,94.4928582 252.368997,96.8043525 C254.680661,99.1160161 255.98637,102.247177 256,105.516191 C256.011773,108.785206 254.73316,111.927036 252.440126,114.257159 L136.785306,229.907914 C135.636079,231.061206 134.270419,231.974016 132.766907,232.597234 C131.263563,233.220452 129.651834,233.538835 128.024524,233.537148 Z" fill="#729B1B"/>
        <path d="M127.974735,233.537148 C129.602552,233.538835 131.21462,233.220452 132.718472,232.597234 C134.222323,231.974016 135.588152,231.059512 136.737718,229.907914 L194.565551,172.084145 C196.878908,169.758934 198.17615,166.610668 198.171084,163.330307 C198.167682,160.049946 196.861973,156.903374 194.541842,154.584936 C192.221711,152.264805 189.076832,150.959096 185.796471,150.954015 C182.51611,150.950628 179.367844,152.246176 177.040939,154.559533 L127.974735,203.620996 L21.0822215,96.7333937 C18.751929,94.4406975 15.6100986,93.1617463 12.3412538,93.1750213 C9.07223962,93.1883347 5.94090913,94.4928582 3.62943176,96.8043525 C1.31790358,99.1160161 0.013413991,102.247177 -1.20332295e-14,105.516191 C-0.0132082455,108.785206 1.26574296,111.927036 3.55837139,114.257159 L119.213783,229.907914 C120.36318,231.061206 121.72884,231.974016 123.232183,232.597234 C124.735696,233.220452 126.347425,233.538835 127.974735,233.537148 Z" fill-opacity="0.5" fill="#729B1B"/>
    </g>
  </symbol>
  <symbol viewBox="0 0 24 24" xmlns="http://www.w3.org/2000/svg" id="husky"><path d="M13.083 2.937c1.003.4 1.4 1.98.875 3.539-.519 1.552-1.745 2.497-2.752 2.104-1-.389-1.404-1.972-.888-3.536.512-1.557 1.753-2.493 2.765-2.107m5.61 3.239c.848.688.65 2.227-.426 3.457-1.105 1.225-2.67 1.67-3.514.995-.853-.68-.647-2.215.445-3.436 1.09-1.234 2.654-1.68 3.495-1.016M6.801 4.122c1.117.132 1.93 1.533 1.863 3.116-.12 1.584-1.075 2.769-2.184 2.641-1.108-.127-1.918-1.515-1.827-3.105.092-1.59 1.068-2.773 2.148-2.652m14.124 8.155c.646.875.11 2.312-1.222 3.186s-2.938.867-3.603-.03c-.664-.896-.116-2.316 1.196-3.212 1.338-.849 2.957-.845 3.63.056m-6.195 7.702c-.394.756-1.43 1.245-2.282 1.162-1.776-.168-2.67-2.462-4.23-3.364-1.562-.901-4.043-.482-5.02-1.977-.564-.838-.516-2.17.075-2.959.816-1.088 2.583-.904 3.909-1.28 1.745-.467 3.73-2.093 5.308-1.183 1.569.906 1.218 3.434 1.62 5.184.319 1.46 1.304 3.106.62 4.417z" style="fill:#90a4ae;stroke-width:.90605"/></symbol>
  <symbol viewBox="0 0 128 128" xmlns="http://www.w3.org/2000/svg" id="netlify"><path d="M80.46 82.605h-8.777l-.734-.733V61.326c0-3.656-1.436-6.489-5.844-6.588-2.269-.06-4.864 0-7.638.11l-.416.425v26.589l-.733.733H47.54l-.733-.733V46.764l.733-.733h19.753c7.677 0 13.899 6.22 13.899 13.898v21.943l-.733.733Z" fill="#014847"/><path d="M58.942 119.902v-26.33l.733-.734h8.797l.733.733v26.331l-.733.733h-8.796zm0-84.838V8.734L59.675 8h8.797l.733.733v26.331l-.733.733h-8.796zm68.335 34.385H92.169l-.733-.733V59.92l.733-.733h35.108l.733.733v8.797zm-91.436 0H.733L0 68.716V59.92l.733-.733h35.108l.733.733v8.797zm-8.49-35.633v-1.209l6.034-6.033h1.208l9.223 9.223v6.39l-.852.852h-6.39zm7.242 68.235h-1.208l-6.033-6.033v-1.209l9.223-9.222h6.39l.851.851v6.39z" fill="#05bdba"/></symbol>
</svg>